<svg id="icon" xmlns="http://www.w3.org/2000/svg" width="35.821" height="36" viewBox="0 0 35.821 36">
  <path id="Shape_3" data-name="Shape 3" d="M31.94,36H3.881A3.89,3.89,0,0,1,0,32.1V3.9A3.89,3.89,0,0,1,3.881,0H31.94a3.89,3.89,0,0,1,3.881,3.9V32.1A3.89,3.89,0,0,1,31.94,36ZM7.213,23.789a1.605,1.605,0,0,0,.538.857q1.759,1.817,3.564,3.589a1.578,1.578,0,0,0,.854.533c1.663.051,3.328.025,4.905.025L7.188,18.85C7.188,20.442,7.161,22.117,7.213,23.789ZM23.9,21.87a7.634,7.634,0,0,0,4.527-8.353,7.407,7.407,0,0,0-6.738-6.24c-4.535-.151-9.079-.048-13.619-.07-.734,0-.925.345-.9,1.023.039,1.259-.042,2.525.042,3.78A2.412,2.412,0,0,0,7.8,13.438Q15.1,20.873,22.48,28.24a1.553,1.553,0,0,0,.856.53c1.66.051,3.323.025,5.324.025L22.185,22.5C22.958,22.217,23.435,22.064,23.9,21.87Zm-7.182-5.063c-1.458-1.7-3.093-3.236-4.647-4.848-.291-.3-.56-.624-.95-1.062a10.2,10.2,0,0,1,1.058-.139c2.762-.036,5.524-.1,8.285-.077A3.826,3.826,0,0,1,24.5,14.526c-.024,2.13-1.687,3.613-4.01,3.793A4.112,4.112,0,0,1,16.715,16.807Z" fill="#c04ae2"/>
</svg>
